<svg xmlns="http://www.w3.org/2000/svg" fill="none" viewBox="0 0 42 37"><path fill="#FF95E1" d="m22.22 25.11-.4-.59a59.8 59.8 0 0 1 2.15-6.55c.94-2.49 1.83-4.6 2.65-6.31h3.58c-1.2 4.74-2.13 9.23-2.77 13.45h-5.21Zm-10.12 0-.33-.59c.36-1.48 1-3.49 1.91-6.01.91-2.53 1.85-4.81 2.82-6.85h3.52c-1.2 4.74-2.12 9.23-2.77 13.45H12.1Z"/><path fill="#fff" fill-rule="evenodd" d="m12.1 23.3.35-1.16a87.83 87.83 0 0 1 2.74-7.52v-.02a72.62 72.62 0 0 1 1.31-2.94h3.52a173.02 173.02 0 0 0-1.05 4.4 145.2 145.2 0 0 0-1.45 7.37c0 .06-.02.11-.03.17l-.24 1.51H12.1l-.33-.59a22.88 22.88 0 0 1 .33-1.21Zm9.78.97-.06.25.4.6h5.21a121.46 121.46 0 0 1 .96-5.45v-.01a150.55 150.55 0 0 1 1.8-8h-3.57a58.04 58.04 0 0 0-1.73 3.97 117.53 117.53 0 0 0-2.26 6.11 52.41 52.41 0 0 0-.75 2.53Zm-2.14 11.56c-.8.19-1.64.28-2.49.28H12.1a11 11 0 0 1-9.66-5.73l-.32-.59a11 11 0 0 1-1.04-7.84c.5-2.07 1.3-4.52 2.26-7.18 1-2.8 2.08-5.41 3.22-7.82A11 11 0 0 1 16.5.65h3.52a11 11 0 0 1 3.3.52c1.05-.33 2.17-.51 3.3-.51h3.58a11 11 0 0 1 10.66 13.7 132.2 132.2 0 0 0-2.56 12.41 11 11 0 0 1-10.87 9.34h-5.21c-.84 0-1.68-.1-2.48-.28Z" clip-rule="evenodd"/></svg>