<svg xmlns="http://www.w3.org/2000/svg" fill="none" viewBox="0 0 63 53"><path fill="#FF95E1" d="M51.99 11.6c-.73 3.07-1.5 6.38-2.3 9.93-.8 3.55-1.53 7.02-2.18 10.4-.65 3.4-1.17 6.5-1.57 9.32h-11.5l-.84-1.33a112.2 112.2 0 0 1 2.78-9.08c1.13-3.3 2.38-6.61 3.75-9.92 1.37-3.3 2.7-6.41 4-9.31h7.86Zm-22.39 0a1123 1123 0 0 0-2.3 9.93c-.8 3.55-1.53 7.02-2.17 10.4-.65 3.4-1.17 6.5-1.58 9.32H12.18l-.73-1.33a112.2 112.2 0 0 1 2.79-9.08c1.12-3.3 2.33-6.61 3.63-9.92 1.37-3.3 2.7-6.41 3.99-9.31h7.74Z"/><path fill="#fff" fill-rule="evenodd" d="M60.62 4.78a11 11 0 0 1 2.07 9.36c-.72 3.03-1.47 6.3-2.28 9.83-.77 3.43-1.47 6.77-2.1 10.02-.61 3.26-1.1 6.2-1.48 8.82a11 11 0 0 1-10.9 9.44H34.45A11 11 0 0 1 29 50.81a10.96 10.96 0 0 1-5.45 1.44H12.18a11 11 0 0 1-9.66-5.73l-.72-1.33a11 11 0 0 1-1-8c.81-3.17 1.83-6.48 3.04-9.94A256.63 256.63 0 0 1 7.7 16.71a415.2 415.2 0 0 1 4.1-9.57A11 11 0 0 1 21.87.6h7.74a11 11 0 0 1 7.26 2.73A11 11 0 0 1 44.12.61H52a11 11 0 0 1 8.63 4.17ZM12.18 37.26c-.26.9-.5 1.8-.73 2.66l.73 1.33h11.37a175.02 175.02 0 0 1 1.58-9.32 288.33 288.33 0 0 1 2.17-10.4 1200.12 1200.12 0 0 1 2.3-9.92h-7.74a394.05 394.05 0 0 0-4 9.31c-1.17 3-2.27 6-3.3 9l-.12.33a277.96 277.96 0 0 0-.42 1.2c-.7 2.02-1.3 3.96-1.84 5.81Zm24.2-6.41a131.42 131.42 0 0 0-1.94 6c-.3 1.05-.59 2.07-.84 3.07l.84 1.33h11.5a200.6 200.6 0 0 1 1.57-9.32 295.03 295.03 0 0 1 2.18-10.4 1205.78 1205.78 0 0 1 2.3-9.92h-7.87a393.09 393.09 0 0 0-4 9.31 166.4 166.4 0 0 0-3.4 8.96l-.03.05-.1.32-.21.6Z" clip-rule="evenodd"/></svg>