<svg xmlns="http://www.w3.org/2000/svg" fill="none" viewBox="0 0 63 53"><path fill="#FF95E1" d="M51.99 12.94c-.73 2.82-1.66 5.89-2.79 9.2-1.13 3.3-2.38 6.6-3.75 9.91-1.29 3.23-2.58 6.3-3.87 9.2H33.6c.8-3.06 1.57-6.33 2.3-9.8.8-3.55 1.53-7.02 2.17-10.4.73-3.47 1.3-6.62 1.7-9.44h11.37l.85 1.33Zm-22.39 0c-.72 2.82-1.65 5.89-2.78 9.2-1.13 3.3-2.38 6.6-3.75 9.91-1.3 3.23-2.58 6.3-3.87 9.2h-7.75a252.82 252.82 0 0 0 3.27-15c.56-2.66 1.05-5.25 1.45-7.75.49-2.5.89-4.8 1.21-6.9h11.38l.84 1.34Z"/><path fill="#fff" fill-rule="evenodd" d="M61.27 7.03a11 11 0 0 1 1.37 8.65c-.8 3.14-1.82 6.48-3.03 10-1.2 3.52-2.52 7.03-3.97 10.52-1.33 3.32-2.66 6.5-4 9.52a11 11 0 0 1-10.06 6.53H33.6a11 11 0 0 1-7.2-2.68 11 11 0 0 1-7.2 2.68h-7.75A11 11 0 0 1 .78 38.58a241.47 241.47 0 0 0 3.18-14.62 149.58 149.58 0 0 0 1.41-7.55c.46-2.39.84-4.54 1.14-6.48A11 11 0 0 1 17.38.61h11.38a11 11 0 0 1 5.5 1.47 10.96 10.96 0 0 1 5.5-1.47h11.38a11 11 0 0 1 9.28 5.09l.85 1.33Zm-12.38 16a153.82 153.82 0 0 0 2.25-7c.3-1.06.59-2.1.85-3.1l-.85-1.32H39.77a124.3 124.3 0 0 1-1.5 8.48l-.2.95a288.54 288.54 0 0 1-1.5 7.33l-.02.12a324.04 324.04 0 0 1-.66 2.96 209.35 209.35 0 0 1-2.3 9.8h8a259.72 259.72 0 0 0 3.86-9.2 166.46 166.46 0 0 0 3.42-8.95l.02-.07Zm-22.28-.28a76.82 76.82 0 0 0 .2-.62 150 150 0 0 0 1.01-3.04l.06-.18a125.45 125.45 0 0 0 1.72-5.97l-.84-1.33H17.38c-.32 2.1-.72 4.4-1.2 6.9a149.48 149.48 0 0 1-1.46 7.74l-.42 2.17-.02.12a252.7 252.7 0 0 1-2.83 12.71h7.75a251.14 251.14 0 0 0 3.87-9.2c.51-1.24 1.01-2.48 1.49-3.72l.09-.22a163.95 163.95 0 0 0 1.96-5.36Z" clip-rule="evenodd"/></svg>