<svg xmlns="http://www.w3.org/2000/svg" fill="none" viewBox="0 0 245 62"><path fill="#232323" d="M2.773 53V29.9h15.68v5.425h-9.66v4.41h7.84v5.425h-7.84V53h-6.02Zm20.02 0V29.9h6.02v17.675h9.555V53H22.791Zm19.78 0V29.9h6.02V53h-6.02Zm32.12 0h-6.72l-5.215-7.175h-2.485V53h-6.02V29.9h9.065c2.59 0 4.725.735 6.405 2.205 1.68 1.447 2.52 3.36 2.52 5.74 0 2.893-1.213 5.087-3.64 6.58L74.693 53Zm-14.42-17.85v5.425h3.08c.84 0 1.505-.245 1.995-.735.513-.513.77-1.178.77-1.995 0-.817-.257-1.47-.77-1.96-.49-.49-1.155-.735-1.995-.735h-3.08ZM82.216 53V35.325h-6.93V29.9h19.88v5.425h-6.93V53h-6.02Zm16.656 0V29.9h6.02V53h-6.02Zm26.135-23.1h6.02v23.52h-1.925l-12.53-12.145V53h-6.02V29.48h1.925l12.53 11.97V29.9ZM135.5 41.45c-.046-3.313 1.167-6.148 3.64-8.505 2.474-2.357 5.449-3.512 8.925-3.465 4.317 0 7.63 1.715 9.94 5.145l-4.2 3.57c-1.516-2.123-3.465-3.185-5.845-3.185-1.936 0-3.476.583-4.62 1.75-1.12 1.167-1.68 2.73-1.68 4.69 0 1.983.595 3.582 1.785 4.795 1.214 1.213 2.835 1.82 4.865 1.82 2.194 0 3.885-.688 5.075-2.065v-1.085h-5.39v-5.18h11.41v7.28c-1.073 1.913-2.613 3.465-4.62 4.655-2.006 1.167-4.246 1.75-6.72 1.75-3.476.047-6.451-1.097-8.925-3.43-2.473-2.357-3.686-5.203-3.64-8.54ZM177.974 53V35.325h-6.93V29.9h19.88v5.425h-6.93V53h-6.02Zm15.124-11.55c-.07-3.29 1.132-6.125 3.605-8.505 2.497-2.38 5.437-3.535 8.82-3.465 3.384-.07 6.324 1.085 8.82 3.465 2.52 2.38 3.745 5.215 3.675 8.505.07 3.313-1.155 6.148-3.675 8.505-2.496 2.357-5.436 3.512-8.82 3.465-3.406.047-6.346-1.108-8.82-3.465-2.473-2.357-3.675-5.192-3.605-8.505Zm18.76 0c0-1.89-.606-3.43-1.82-4.62-1.19-1.213-2.683-1.82-4.48-1.82-1.866 0-3.383.595-4.55 1.785-1.166 1.19-1.75 2.742-1.75 4.655 0 1.913.584 3.477 1.75 4.69 1.167 1.167 2.684 1.75 4.55 1.75 1.82 0 3.325-.595 4.515-1.785 1.19-1.19 1.785-2.742 1.785-4.655ZM244.456 53h-7.14l-8.785-11.515V53h-6.02V29.9h6.02v10.465l7.63-10.465h7l-7.945 10.99 9.24 12.11Z"/><path fill="#9DE83F" d="M162.928 9.274h1.264l.361 8.838a1.087 1.087 0 0 0 .938 1.05h.145a1.082 1.082 0 0 0 1.011-.832l3.538-11.483a.726.726 0 0 0-.722-.942h-.759l1.011-4.6A1.088 1.088 0 0 0 168.632 0L164.3.181a1.082 1.082 0 0 0-1.047.942L162.17 8.44a.727.727 0 0 0 .181.58.719.719 0 0 0 .577.253Zm1.733-7.607 3.574-.145-1.119 5.035a.724.724 0 0 0 .722.87h.65l-2.6 8.476-.288-7.462a.724.724 0 0 0-.722-.689h-1.155l.938-6.085ZM181.593 17.148a1.087 1.087 0 0 0-.285-.9l-2.534-2.593a1.067 1.067 0 0 0-1.356-.144l-5.211 3.565a.723.723 0 0 0-.107 1.116l.678.72-5.032 5.08a1.092 1.092 0 0 0 .003 1.515c.198.202.466.317.747.321.161 0 .319-.037.464-.108l8.993-4.322a.721.721 0 0 0 .179-1.152l-.357-.36 3.283-1.945a1.08 1.08 0 0 0 .535-.793Zm-5.353 1.945a.724.724 0 0 0-.142 1.117l.321.324-6.21 2.989 4.104-4.142a.725.725 0 0 0 0-1.008l-.607-.613 4.212-2.881 1.998 2.053-3.676 2.16ZM162.663 24.577 157.321 13.3a.711.711 0 0 0-1.147-.218l-.574.58-2.438-4.242a1.068 1.068 0 0 0-1.685-.218l-3.154 3.191a1.1 1.1 0 0 0-.144 1.378l4.23 6.309a.713.713 0 0 0 1.112.109l.932-.943 6.453 6.562a1.068 1.068 0 0 0 1.683-.272 1.1 1.1 0 0 0 .038-.96h.036Zm-7.708-6.853a.711.711 0 0 0-1.004 0l-.825.834-3.585-5.33 2.653-2.646 2.653 4.64a.71.71 0 0 0 1.111.145l.502-.507 3.98 8.448-5.485-5.584Z"/></svg>