<svg xmlns="http://www.w3.org/2000/svg" fill="none" viewBox="0 0 273 25"><path fill="#515151" d="M.67 23.51V1.11h16.96v.7H4.25v10.53h11.52v.77H4.25v10.4H.67ZM36.66 22.8v.71H21.01V1.11h3.59v21.7h12.06ZM40.54 23.51V1.11h3.59v22.4h-3.59ZM49.26 23.51V1.11h8.55c3.09 0 5.42.58 6.97 1.73 1.56 1.15 2.34 2.56 2.34 4.22 0 1.39-.53 2.65-1.6 3.78-1.07 1.1-2.63 1.87-4.67 2.27l11.2 10.4h-5.06L56.91 13.37h-4.06V23.5h-3.59Zm3.59-10.85h4.99a5.3 5.3 0 0 0 3.97-1.7 5.5 5.5 0 0 0 1.63-3.86c0-1.52-.45-2.78-1.35-3.78-.87-1-2.31-1.5-4.32-1.5h-4.92v10.84ZM72.66 1.82v-.7h20.9v.7h-8.67v21.7h-3.55V1.81h-8.68ZM109.23 23.51 97.3 3.38v20.13h-.83V1.11h3.45l11.1 19.14 9.03-19.14h3.59v22.4h-3.59V2.94L110.4 23.5h-1.16ZM140.31 1.11l11.46 22.4h-3.87l-3.68-7.26h-12.48l-3.75 7.26h-.8l11.53-22.4h1.6Zm-8.22 14.43h11.78L138.07 4l-5.98 11.55ZM151.82 1.82v-.7h20.9v.7h-8.68v21.7h-3.55V1.81h-8.67ZM199.75 6.26c0 .56-.2 1-.57 1.32-.37.32-.8.48-1.32.48-2.1 0-2.76-1.28-1.95-3.84.22-.7-.38-1.33-1.8-1.86-1.95-.77-4.23-1-6.8-.7-3.6.42-6.1 1.79-7.56 4.1a8.43 8.43 0 0 0-1.25 4.63c0 1.99.35 3.76 1.06 5.31a9.7 9.7 0 0 0 2.81 3.68c1.2.9 2.5 1.58 3.9 2.05a15 15 0 0 0 4.52.67c2.65 0 5.05-.57 7.2-1.72 2.16-1.18 3.52-2.72 4.1-4.64l.48.03c-.81 2.6-2.36 4.6-4.64 5.98-2.28 1.39-5.14 2.08-8.58 2.08-2.66 0-5.06-.44-7.17-1.31-2.1-.9-3.8-2.22-5.09-3.97a10.5 10.5 0 0 1-1.88-6.24c0-3.58 1.33-6.4 4-8.45C181.87 1.82 185.25.8 189.35.8c.94 0 1.97.12 3.1.35 1.14.22 2.26.54 3.37.96 1.13.4 2.06.98 2.81 1.73a3.32 3.32 0 0 1 1.12 2.43ZM205.92 23.51V1.11h3.58v10.43h14.21V1.11h3.55v22.4h-3.55V12.25h-14.2V23.5h-3.6ZM247.52 11.8v.77H236V22.8h13.38v.7h-16.96V1.11h16.96v.7H236v9.99h11.52ZM252.97 6.94c0-1.99.91-3.51 2.72-4.58a12.33 12.33 0 0 1 6.47-1.63c2.47 0 4.63.5 6.46 1.53 1.84 1.03 2.75 2.41 2.75 4.16 0 .52-.2.92-.6 1.22-.39.28-.86.42-1.41.42-2 0-2.62-1.28-1.82-3.84.23-.84-.2-1.5-1.29-1.99a9.44 9.44 0 0 0-4.03-.77c-1.83 0-3.43.34-4.8 1.03-1.34.68-2.01 1.67-2.01 2.97 0 .88.42 1.7 1.28 2.47a11.5 11.5 0 0 0 3.26 1.95c1.3.51 2.71 1.08 4.23 1.7 1.5.61 2.92 1.21 4.22 1.79 1.3.55 2.38 1.26 3.23 2.1a3.82 3.82 0 0 1 1.31 2.76c0 1.28-.5 2.38-1.5 3.3a8.9 8.9 0 0 1-3.78 1.98c-1.51.43-3.17.64-4.96.64-2.92 0-5.5-.53-7.7-1.6s-3.3-2.5-3.3-4.32c0-.55.19-.98.57-1.28.38-.3.85-.45 1.4-.45.56 0 1.04.17 1.45.52.42.32.64.76.64 1.34 0 .26-.05.63-.16 1.12-.09.49-.13.82-.13 1 0 .93.67 1.67 2.02 2.2 1.36.53 2.98.8 4.86.8 2.07 0 3.87-.31 5.4-.93 1.57-.64 2.35-1.53 2.35-2.69 0-.72-.33-1.4-.97-2.01a8.5 8.5 0 0 0-2.43-1.63c-1-.47-2.1-.93-3.32-1.38l-3.69-1.44a30.19 30.19 0 0 1-3.32-1.63 8.23 8.23 0 0 1-2.47-2.11 4.46 4.46 0 0 1-.93-2.72Z"/></svg>