<svg xmlns="http://www.w3.org/2000/svg" fill="none" viewBox="0 0 41 37"><path fill="#FF95E1" d="m19.13 11.76.4.6a82.73 82.73 0 0 1-4.73 12.86H11.3c1.16-4.73 2.06-9.21 2.68-13.46h5.16Zm10.18 0 .4.6a82.73 82.73 0 0 1-4.73 12.86h-3.65a167.3 167.3 0 0 0 2.82-13.46h5.16Z"/><path fill="#fff" fill-rule="evenodd" d="m29.66 12.53.05-.18-.4-.59h-5.16a54.26 54.26 0 0 1-.69 3.99 139.22 139.22 0 0 1-.54 2.65 196.49 196.49 0 0 1-1.59 6.82h3.65a138.47 138.47 0 0 0 2.44-5.86 73.41 73.41 0 0 0 2.24-6.83Zm-11.6 23.2a11 11 0 0 0 3.27.49h3.65a11 11 0 0 0 10.05-6.52 93.32 93.32 0 0 0 5.34-14.65 11 11 0 0 0-1.57-8.9l-.4-.58a11 11 0 0 0-9.1-4.8h-5.15c-.86 0-1.7.1-2.51.28a11 11 0 0 0-2.51-.29h-5.16a11 11 0 0 0-10.88 9.4c-.57 3.85-1.4 8-2.48 12.43a11 11 0 0 0 10.68 13.63h3.51c1.13 0 2.23-.17 3.27-.5ZM13.15 16.7a151.06 151.06 0 0 1-1.85 8.5h3.51a146.55 146.55 0 0 0 1.63-3.8A93.6 93.6 0 0 0 18 17.34a62.28 62.28 0 0 0 1.54-4.99l-.4-.59h-5.16a125.4 125.4 0 0 1-.83 4.95Z" clip-rule="evenodd"/></svg>