<svg xmlns="http://www.w3.org/2000/svg" width="100%" height="986" viewBox="0 0 1920 986" preserveAspectRatio="none"><g transform="translate(0.52 18.231)"><rect width="1919.48" height="984.766" transform="translate(0 -17)" fill="#fff"/><path d="M-.047-16.977l245.055-.085C148.9,37.835,66.449,98.282-.005,160.053-.005,160.053-1.135,161.058-.047-16.977Z" fill="#e2f9e3"/><path d="M1887.22,986h0v0h2.479ZM.008,963.863h0L0,493.036C14.084,473.017,28.733,453.7,43.539,435.62c15.813-19.31,32.509-38.07,49.624-55.76,8.448-9.4,17.036-18.418,25.342-27.143l.035-.037c8.288-8.707,16.858-17.71,25.287-27.084,8.416-7.488,16.207-15.021,23.742-22.307,11.652-11.266,22.659-21.907,35.366-31.958l.034-.028c24.895-20.511,50.637-41.72,71.74-60.5l.052-.038c24.891-18.456,50.629-37.539,75.944-54.225,31.518-19.735,63.479-38.168,95-54.786s63.48-31.892,95-45.395C573.9,42,608.242,27.145,637.8,16.706l.277-.086c17.9-5.529,36.4-11.246,54.205-16.621l326.828.231H959.2V153.979c-3.62-.06-7.323-.09-11.006-.09-9.141,0-18.4.19-27.51.566-25.012,1.031-50.293,3.247-75.139,6.587-24.446,3.287-49.061,7.741-73.16,13.239-23.749,5.419-47.565,11.98-70.785,19.5-22.925,7.426-45.808,15.962-68.014,25.372a1086.809,1086.809,0,0,0-128.244,64.7c-20.246,11.958-40.022,24.553-58.779,37.437-18.792,12.908-36.837,26.294-53.633,39.786C319.273,420.241,263.795,480.142,232.489,534.3q-19,25.046-38,50.09c-13.255,18.721-26.893,39.629-41.692,63.917-13.2,21.656-26.069,43.929-38.518,65.47l-.007.012-.018.037c-10.373,21.537-21.1,43.807-31.128,65.725-11.242,24.569-20.389,46.067-27.963,65.725-6.332,11.477-11.7,23.147-16.886,34.432l-.006.012c-5.188,11.284-10.553,22.953-16.885,34.43-7.31,15.9-14.3,32.16-21.38,49.7Z" transform="translate(-0.007 -18.231)" fill="#e2f9e3"/></g></svg>