<svg xmlns="http://www.w3.org/2000/svg" width="100%" height="986.234" viewBox="0 0 1920.535 986.234" preserveAspectRatio="none"><g transform="translate(0.52 18.231)"><rect width="1920" height="985" transform="translate(0 -17)" fill="#fff"/><path d="M-.047-16.977l245.055-.085C148.9,37.835,66.449,98.282-.005,160.053-.005,160.053-1.135,161.058-.047-16.977Z" fill="#e2f9e3"/><path d="M1919.934-16.937l.08,168.814c-11.714-10.064-23.6-19.849-36.2-30.232-56.072-43.558-138.961-92.792-224.686-138.623Z" fill="#e2f9e3"/><path d="M-.007,474.922a935.688,935.688,0,0,1,93.188-113.2c16.893-18.788,33.785-35.489,50.678-54.277,21.116-18.788,38.009-37.576,59.125-54.277,25.339-20.876,50.678-41.752,71.794-60.54,25.339-18.788,50.678-37.576,76.017-54.277q95.022-59.5,190.044-100.2C574.625,23.53,608.41,8.917,637.972-1.521c18.312-5.657,36.624-11.315,54.5-16.71l525.359.372c95.262,25.3,184.606,62.591,256.333,106.1a752.316,752.316,0,0,1,80.24,52.19c38.01,27.138,80.24,56.364,118.25,89.766,16.9,16.7,38.01,33.4,54.91,50.1,21.11,20.875,42.23,41.751,59.12,62.627,8.45,10.438,21.12,20.876,29.56,29.226,40.352,39.89,72.615,85.615,103.774,132.663l-.056,463.148-32.228.035c-1.276-6.64-2.584-13.077-3.921-19.674C1862.7,869,1828.91,791.76,1786.68,718.7a2309.04,2309.04,0,0,0-139.37-212.934c-16.89-20.875-33.78-41.751-54.9-62.627-16.89-16.7-33.78-33.4-50.68-48.014-63.34-54.277-139.36-110.642-223.82-156.569-29.57-14.613-59.13-29.226-88.69-41.752-101.36-45.926-206.94-64.715-308.294-60.539a823.182,823.182,0,0,0-287.177,64.715C545.062,238.551,460.6,288.653,393.027,342.93S266.332,457.747,232.546,516.2q-19,25.052-38.009,50.1c-29.562,41.752-54.9,85.591-80.24,129.43-21.116,43.84-42.232,87.679-59.125,131.518-12.67,22.963-21.116,45.927-33.785,68.89C13.827,912.581,6.767,929.079,0,945.859Z" fill="#e2f9e3"/><path d="M393.694,640.024c8-9.884,15.142-19.307,24.674-28.73,12.669-14.613,25.339-27.138,38.008-39.664a474.163,474.163,0,0,1,50.679-43.839c16.892-14.613,33.785-27.139,50.678-39.664,42.232-29.226,84.464-54.277,126.7-73.065,21.115-10.438,42.231-20.876,67.571-29.227,21.116-8.35,42.231-14.613,67.571-20.875,88.687-20.876,177.374-20.876,261.839-4.176s164.7,50.1,228.05,91.854c16.89,12.526,38.01,25.051,54.9,37.577,25.34,20.875,50.68,41.751,76.02,64.714,12.67,12.526,25.34,22.964,38.01,35.489,12.67,14.613,25.34,31.314,42.23,45.927,1.225,1.211,2.362,2.378,3.632,3.723l-211.71-.041c-30.729-25.7-64.582-50.895-100.212-72.572-16.9-10.438-38.01-20.876-59.13-31.314-67.57-33.4-139.36-48.014-202.711-45.926C882.918,492.3,819.571,509,760.446,536.141c-58.829,27-113.477,62.273-159.883,103.842C600.43,640.1,393.694,640.024,393.694,640.024Z" fill="#e2f9e3"/></g></svg>