<svg width="100%" height="1087" viewBox="0 0 1920 1087" preserveAspectRatio="none" fill="none" xmlns="http://www.w3.org/2000/svg">
<path d="M-719.455 1460.94C-765.911 1460.94 -799.696 1425.45 -791.25 1387.87C-778.58 1327.33 -761.687 1260.53 -749.018 1193.73C-744.795 1170.77 -740.571 1147.8 -736.348 1124.84C-732.125 1101.87 -727.902 1078.91 -723.679 1055.95C-685.67 916.08 -630.768 772.037 -554.751 634.257C-542.082 607.118 -525.189 579.98 -508.296 552.841C-428.055 431.761 -347.815 296.068 -216.896 172.901C-195.78 149.938 -170.441 126.974 -145.102 106.099C-119.763 83.1352 -90.2003 58.0842 -64.8611 37.2084C-31.0756 10.0698 2.70996 -14.9811 36.4955 -40.0321C70.281 -65.0831 108.29 -88.0465 146.298 -108.922C234.985 -161.112 323.672 -202.863 416.583 -236.265C463.038 -255.053 513.716 -271.754 560.171 -286.367C606.626 -300.98 657.304 -313.505 703.759 -321.856C1088.07 -397.009 1518.83 -313.505 1797.57 -165.287C1839.8 -144.411 1877.81 -123.535 1915.81 -100.572C1974.94 -65.0831 2029.84 -27.5066 2084.74 12.1574C2110.08 33.0332 2135.42 53.9091 2160.76 74.7849C2186.1 101.923 2215.66 126.974 2245.22 154.113C2257.89 166.638 2274.79 179.164 2287.46 191.689C2333.91 237.616 2371.92 287.718 2405.7 339.908C2439.49 392.097 2473.28 446.374 2511.28 498.564C2519.73 511.089 2523.95 525.702 2528.18 538.228C2540.85 567.454 2553.52 596.68 2561.96 627.994C2566.19 638.432 2566.19 648.87 2570.41 659.308C2574.63 690.621 2583.08 721.935 2595.75 753.249C2604.19 784.562 2616.86 815.876 2625.31 849.277C2633.76 880.591 2642.2 911.905 2646.43 943.219C2650.65 974.532 2650.65 1005.85 2650.65 1037.16C2650.65 1049.69 2650.65 1062.21 2650.65 1072.65C2650.65 1085.17 2650.65 1097.7 2654.87 1110.23C2659.1 1135.28 2659.1 1160.33 2663.32 1187.47C2667.54 1212.52 2671.77 1239.66 2675.99 1264.71C2680.21 1289.76 2680.21 1316.9 2684.44 1341.95C2684.44 1367 2688.66 1392.05 2692.88 1415.01C2697.1 1433.8 2684.44 1450.5 2659.1 1460.94C2637.98 1471.38 2650.65 1481.81 2621.09 1479.73C2595.75 1477.64 2574.63 1477.64 2557.74 1477.64C2540.85 1477.64 2523.95 1477.64 2507.06 1477.64C2494.39 1477.64 2477.5 1477.64 2469.05 1477.64C2456.38 1477.64 2447.94 1477.64 2435.27 1477.64C2414.15 1477.64 2401.48 1452.59 2401.48 1421.27C2401.48 1394.14 2397.26 1367 2397.26 1337.77C2384.59 1283.49 2380.37 1227.13 2376.14 1170.77C2371.92 1114.4 2371.92 1058.04 2363.47 1001.67C2359.25 972.445 2355.03 945.306 2350.8 916.08C2342.36 882.679 2333.91 849.277 2321.24 815.876C2308.57 782.475 2295.9 749.074 2283.23 715.672C2270.56 682.271 2253.67 648.87 2236.78 615.468C2186.1 517.352 2126.97 421.323 2059.4 333.645C2038.29 306.506 2012.95 281.455 1987.61 254.317C1966.49 233.441 1941.15 212.565 1915.81 191.689C1827.13 122.799 1666.65 37.2084 1544.17 -21.2439C1501.94 -40.0321 1459.71 -58.8203 1417.48 -75.521C813.562 -319.768 108.29 70.6097 -81.7538 360.784C-98.6466 381.659 -115.539 402.535 -132.432 425.499C-212.673 531.965 -271.797 646.782 -318.252 757.424C-335.145 786.65 -347.815 815.876 -364.708 845.102C-423.832 959.919 -440.725 1078.91 -470.287 1195.82C-491.403 1239.66 -504.073 1331.51 -491.403 1398.31C-482.957 1431.71 -537.858 1460.94 -580.09 1460.94H-719.455Z" fill="#E2F9E3"/>
<path d="M-233.79 1448.41C-267.576 1448.41 -292.915 1419.19 -284.468 1392.05C-276.022 1344.04 -263.352 1291.85 -254.906 1237.57C-250.683 1218.78 -246.46 1202.08 -246.46 1183.29C-242.237 1164.5 -238.013 1147.8 -238.013 1129.01C-225.344 1074.74 -208.451 1018.37 -187.335 962.008C-166.219 905.643 -145.103 851.366 -119.764 797.089C-111.318 776.213 -98.6482 753.25 -85.9786 732.374C-56.4163 684.36 -26.8539 634.258 6.93161 582.068C40.7171 529.879 78.7258 479.777 125.181 431.762C142.074 412.974 158.966 396.273 175.859 377.485C196.975 358.697 213.868 339.909 234.984 323.208C260.323 302.332 285.662 281.456 306.778 262.668C332.117 243.88 357.456 225.092 382.795 208.391C446.143 168.727 509.491 135.326 572.839 108.187C606.625 93.5741 640.41 78.961 669.972 68.5231C703.758 58.0852 737.543 47.6473 767.106 39.297C898.025 10.0709 1037.39 10.0709 1164.09 33.0343C1290.78 55.9977 1413.25 101.924 1506.16 158.289C1535.73 174.99 1561.07 191.69 1586.4 210.479C1624.41 237.617 1666.65 266.843 1704.65 300.245C1721.55 316.945 1742.66 333.646 1759.56 350.347C1780.67 371.222 1801.79 392.098 1818.68 412.974C1827.13 423.412 1839.8 433.85 1848.24 442.2C1920.04 513.178 1966.49 602.944 2025.62 684.36C2029.84 694.797 2038.29 705.235 2042.51 715.673C2055.18 738.637 2063.62 761.6 2072.07 786.651C2076.29 795.001 2076.29 803.352 2080.52 811.702C2093.19 861.804 2122.75 911.906 2148.09 962.008C2173.43 1012.11 2194.54 1060.12 2198.77 1108.14C2198.77 1116.49 2202.99 1126.93 2202.99 1135.28C2202.99 1143.63 2207.21 1154.07 2207.21 1164.5C2211.44 1183.29 2215.66 1202.08 2215.66 1222.96C2219.88 1241.74 2219.88 1262.62 2219.88 1281.41C2219.88 1300.2 2219.88 1321.07 2219.88 1339.86C2219.88 1358.65 2219.88 1377.44 2219.88 1396.22C2219.88 1410.84 2207.21 1423.36 2186.1 1435.89C2164.98 1446.33 2139.64 1452.59 2114.3 1454.68C2093.19 1454.68 2076.29 1454.68 2063.62 1456.76C2050.96 1456.76 2034.06 1458.85 2025.62 1458.85C2012.95 1458.85 2004.5 1460.94 1996.05 1460.94C1987.61 1460.94 1979.16 1460.94 1970.71 1460.94C1958.04 1460.94 1945.38 1442.15 1945.38 1417.1C1945.38 1396.22 1945.38 1375.35 1945.38 1352.39C1936.93 1308.55 1936.93 1264.71 1936.93 1220.87C1936.93 1177.03 1932.71 1131.1 1928.48 1085.18C1924.26 1062.21 1920.04 1039.25 1915.81 1018.37C1894.7 939.045 1860.91 861.804 1818.68 788.739C1776.45 715.673 1729.99 644.696 1679.31 575.805C1662.42 554.93 1645.53 534.054 1624.41 513.178C1607.52 496.477 1590.63 479.777 1573.73 465.164C1510.39 410.886 1434.37 354.522 1349.91 308.595C1320.34 293.982 1290.78 279.369 1261.22 266.843C1159.86 220.917 1054.28 202.128 952.926 206.303C851.569 210.479 754.436 233.442 665.749 271.019C577.062 308.595 492.598 358.697 425.027 412.974C357.456 467.251 298.332 527.791 264.546 586.243C251.877 602.944 239.207 619.645 226.537 636.345C196.975 678.097 171.636 721.936 146.297 765.775C125.181 809.615 104.065 853.454 87.1722 897.293C74.5026 920.256 66.0563 943.22 53.3867 966.183C32.2708 1012.11 15.378 1058.04 -1.5148 1106.05C-18.4076 1151.98 -31.0771 1197.9 -43.7467 1243.83C-56.4163 1277.23 -69.0858 1350.3 -56.4162 1404.58C-52.193 1431.71 -69.0858 1454.68 -98.6481 1454.68H-233.79V1448.41Z" fill="#E2F9E3"/>
</svg>
