<?xml version="1.0" standalone="no"?>
<!DOCTYPE svg PUBLIC "-//W3C//DTD SVG 20010904//EN"
 "http://www.w3.org/TR/2001/REC-SVG-20010904/DTD/svg10.dtd">
<svg version="1.0" xmlns="http://www.w3.org/2000/svg"
 width="768.000000pt" height="768.000000pt" viewBox="0 0 768.000000 768.000000"
 preserveAspectRatio="xMidYMid meet">
<metadata>
Created by potrace 1.14, written by Peter Selinger 2001-2017
</metadata>
<g transform="translate(0.000000,768.000000) scale(0.100000,-0.100000)"
fill="#000000" stroke="none">
<path d="M1958 7275 c-2 -1 -32 -6 -67 -9 -36 -4 -67 -8 -70 -10 -3 -2 -30 -7
-60 -10 -29 -4 -57 -8 -61 -11 -4 -2 -22 -7 -41 -10 -142 -25 -428 -141 -582
-237 -43 -26 -83 -48 -88 -48 -5 0 -9 -4 -9 -8 0 -4 -15 -16 -32 -26 -18 -11
-40 -25 -48 -32 -8 -8 -44 -37 -80 -66 -73 -58 -225 -209 -267 -266 -16 -20
-36 -46 -46 -57 -23 -24 -157 -225 -187 -280 -31 -56 -113 -219 -113 -225 0
-3 -12 -32 -27 -65 -32 -72 -75 -197 -72 -209 2 -4 -1 -13 -7 -20 -11 -13 -67
-259 -75 -331 -4 -27 -10 -75 -14 -105 -14 -114 -7 -511 13 -620 2 -14 7 -41
9 -60 3 -19 8 -46 11 -60 3 -14 8 -41 11 -60 3 -19 7 -43 10 -52 3 -9 7 -25 9
-35 3 -16 18 -79 29 -123 3 -8 9 -27 15 -42 6 -16 9 -28 6 -28 -2 0 3 -17 11
-37 9 -20 18 -44 19 -52 18 -75 187 -452 207 -459 4 -2 8 -9 8 -16 0 -7 13
-32 29 -57 15 -24 50 -78 76 -119 50 -77 146 -208 190 -257 14 -16 30 -35 37
-43 6 -8 30 -35 52 -60 23 -25 73 -81 111 -125 201 -226 613 -633 899 -886 27
-24 66 -60 87 -79 20 -19 61 -55 89 -80 29 -25 62 -54 74 -65 24 -22 146 -128
180 -158 12 -10 32 -28 46 -40 14 -12 57 -49 95 -82 38 -33 75 -65 81 -71 6
-5 35 -30 64 -55 28 -24 62 -53 74 -64 12 -11 46 -40 76 -65 29 -25 58 -49 64
-55 6 -5 45 -39 86 -75 41 -36 80 -69 86 -75 6 -5 35 -31 65 -57 30 -25 65
-56 79 -68 14 -12 47 -41 73 -64 27 -22 59 -50 71 -61 13 -11 51 -45 86 -75
35 -30 76 -66 91 -80 15 -14 47 -41 70 -60 24 -19 66 -56 94 -83 27 -26 58
-50 68 -53 9 -3 17 -9 17 -13 0 -13 102 -58 158 -70 78 -16 179 -13 247 8 94
28 124 48 271 178 104 91 151 132 178 158 18 17 64 57 101 90 38 33 73 65 79
70 6 6 47 42 91 80 44 39 87 77 96 85 9 8 44 40 78 70 35 30 73 64 85 75 12
11 48 43 81 70 32 28 68 59 81 70 12 11 43 38 70 60 26 22 52 45 58 50 6 6 45
39 86 75 41 36 77 67 80 70 3 3 36 32 75 65 93 80 134 116 159 140 12 11 39
35 61 54 22 19 81 72 131 118 50 46 102 93 115 104 200 172 658 633 855 859
21 25 41 47 44 50 3 3 29 34 58 70 29 36 66 81 82 100 16 19 54 69 84 110 31
41 59 80 63 85 28 35 156 240 160 256 3 10 9 19 14 19 5 0 9 4 9 9 0 4 18 40
39 80 22 39 36 71 33 71 -4 0 -2 4 3 8 18 12 136 292 159 377 1 6 8 30 15 55
8 25 15 52 16 60 2 8 4 15 5 15 1 0 3 8 5 19 2 10 8 39 14 65 6 25 13 57 15
71 3 14 8 39 11 55 6 30 8 45 22 170 10 85 10 481 0 550 -3 28 -9 70 -12 95
-3 25 -10 65 -15 90 -5 25 -12 56 -14 70 -28 152 -113 395 -198 565 -51 101
-97 186 -108 195 -3 3 -11 16 -18 30 -16 32 -125 182 -177 246 -107 130 -396
384 -457 401 -10 3 -18 9 -18 14 0 5 -7 9 -15 9 -8 0 -15 3 -15 8 0 4 -10 12
-23 18 -12 6 -66 34 -119 62 -54 28 -98 49 -98 45 0 -3 -11 2 -25 11 -22 15
-244 91 -290 100 -11 2 -27 7 -35 10 -8 3 -28 7 -45 10 -16 3 -57 10 -90 15
-123 22 -164 25 -350 26 -173 0 -256 -5 -340 -20 -140 -25 -317 -73 -327 -89
-4 -6 -8 -8 -8 -4 0 18 -239 -92 -364 -167 -50 -31 -192 -134 -249 -183 -47
-39 -257 -252 -289 -293 -39 -48 -80 -101 -103 -132 -11 -15 -22 -27 -26 -27
-3 0 -21 21 -39 48 -19 26 -37 49 -40 52 -3 3 -25 30 -50 60 -25 30 -63 74
-85 97 -22 22 -47 49 -56 60 -31 35 -148 138 -234 206 -45 35 -142 101 -202
135 -72 42 -218 114 -240 118 -7 1 -27 9 -44 18 -18 9 -38 16 -46 16 -7 0 -21
4 -31 10 -35 19 -173 54 -297 74 -22 4 -56 9 -75 12 -36 6 -436 14 -442 9z"/>
</g>
</svg>
