<svg xmlns="http://www.w3.org/2000/svg" fill="none" viewBox="0 0 1920 870">
  <defs>
    <filter id="blur1" x="-0.1" y="-0.1">
      <feGaussianBlur in="SourceGraphic" stdDeviation="05" />
    </filter>
  </defs>
  <path filter="url(#blur1)" fill="#9DE83F" d="m1171.36 742.9-34.67-34.26c-2.29-2.2-5.71-4.05-8.76-4.05-3.43-.37-6.86.37-9.53 2.2l-71.62 47.16c-2.29 1.48-4.19 4.06-4.19 7a8.52 8.52 0 0 0 3.05 7.74l9.14 9.58-69.34 67.42a13.99 13.99 0 0 0-4.2 9.94 14 14 0 0 0 4.2 9.95 13.82 13.82 0 0 0 10.29 4.42c2.28 0 4.57-.37 6.47-1.47l123.44-57.47a11.2 11.2 0 0 0 5.34-7c.38-2.95-.39-6.27-2.67-8.1l-4.95-4.8 44.95-25.78c3.81-2.22 6.86-6.27 7.24-10.69a14.3 14.3 0 0 0-4.19-11.79ZM1813.05 426.23l-23.34 26.15c-1.5 1.72-2.65 4.2-2.46 6.31a9.24 9.24 0 0 0 2.26 6.44l39.75 46.44a6.62 6.62 0 0 0 5.48 2.44c2.23.08 4.35-.9 5.58-2.6l6.56-6.93 54.72 43.56a10.95 10.95 0 0 0 7.68 2.26c2.75-.24 5.4-1.53 7.15-3.54a9.17 9.17 0 0 0 2.64-7.38 8.33 8.33 0 0 0-1.51-4.38l-50.75-81.57a8.4 8.4 0 0 0-5.56-3.23c-2.23-.08-4.65.66-5.88 2.36l-3.25 3.73-22.11-29.4a10.9 10.9 0 0 0-8.43-4.31c-3.05 0-6.27 1.07-8.53 3.65Z"/>
  <path filter="url(#blur1)" fill="#FE73AA" d="m1075.1 8.3-17.46 19.57c-1.12 1.29-1.99 3.15-1.84 4.72a6.93 6.93 0 0 0 1.69 4.82l29.74 34.74a4.96 4.96 0 0 0 4.1 1.83 4.93 4.93 0 0 0 4.17-1.95l4.91-5.18 40.94 32.59a8.19 8.19 0 0 0 5.75 1.69 8.12 8.12 0 0 0 5.35-2.65 6.84 6.84 0 0 0 1.97-5.52 6.3 6.3 0 0 0-1.13-3.28l-37.97-61.02a6.27 6.27 0 0 0-4.16-2.42c-1.66-.06-3.48.5-4.4 1.77l-2.43 2.78-16.54-21.99a8.16 8.16 0 0 0-6.31-3.22c-2.28 0-4.69.8-6.38 2.73Z"/>
  <path filter="url(#blur1)" fill="#9DE83F" d="m136.04 201.3 11.45-30.37c.72-1.98.88-4.53-.02-6.31a8.98 8.98 0 0 0-4.19-4.92l-50.8-27.94a6.32 6.32 0 0 0-5.64-.39 5.99 5.99 0 0 0-3.99 4.07l-3.36 8.17-62.91-20.63c-2.41-.8-5.19-.6-7.51.48a9.8 9.8 0 0 0-5.05 5.39 8.53 8.53 0 0 0 .23 7.31 8.15 8.15 0 0 0 2.83 3.35L79.6 194.7a8.04 8.04 0 0 0 5.99 1.05c1.97-.65 3.84-2.07 4.33-3.95l1.57-4.3 29.48 18.66c2.5 1.57 5.96 2.16 8.86 1.08a10.12 10.12 0 0 0 6.21-5.93Z"/>
</svg>