<svg xmlns="http://www.w3.org/2000/svg" fill="none" viewBox="0 0 1920 899">
  <defs>
    <filter id="blur1" x="-0.1" y="-0.1">
      <feGaussianBlur in="SourceGraphic" stdDeviation="05" />
    </filter>
  </defs>
  <path filter="url(#blur1)" fill="#9DE83F" d="m1471.31 809.14-24.56-24.23c-1.62-1.56-4.05-2.86-6.21-2.86-2.42-.26-4.85.26-6.74 1.56l-50.73 33.34c-1.62 1.04-2.97 2.87-2.97 4.95a6.02 6.02 0 0 0 2.16 5.47l6.47 6.77-49.11 47.67a9.88 9.88 0 0 0-2.97 7.03c0 2.6 1.08 5.21 2.97 7.03a9.8 9.8 0 0 0 7.29 3.13c1.62 0 3.24-.26 4.59-1.04l87.43-40.64a7.92 7.92 0 0 0 3.77-4.95c.27-2.08-.27-4.42-1.89-5.73l-3.5-3.38 31.84-18.24c2.7-1.56 4.86-4.42 5.12-7.55.27-2.86-.53-5.99-2.96-8.33ZM1813.05 427.03l-23.34 26.2c-1.5 1.72-2.65 4.21-2.46 6.32a9.27 9.27 0 0 0 2.26 6.45l39.75 46.53a6.62 6.62 0 0 0 5.48 2.45 6.6 6.6 0 0 0 5.58-2.61l6.56-6.94 54.72 43.64a10.95 10.95 0 0 0 7.68 2.26c2.75-.24 5.4-1.53 7.15-3.54a9.2 9.2 0 0 0 2.64-7.4 8.37 8.37 0 0 0-1.51-4.39l-50.75-81.72a8.4 8.4 0 0 0-5.56-3.24c-2.23-.07-4.65.67-5.88 2.37l-3.25 3.73-22.11-29.44a10.89 10.89 0 0 0-8.43-4.33c-3.05 0-6.27 1.07-8.53 3.66Z"/>
  <path filter="url(#blur1)" fill="#FE73AA" d="m1075.1 8.32-17.46 19.6c-1.12 1.3-1.99 3.15-1.84 4.73a6.95 6.95 0 0 0 1.69 4.83l29.74 34.8a4.95 4.95 0 0 0 4.1 1.84 4.92 4.92 0 0 0 4.17-1.95l4.91-5.2 40.94 32.66a8.18 8.18 0 0 0 5.75 1.69 8.11 8.11 0 0 0 5.35-2.65 6.87 6.87 0 0 0 1.97-5.54 6.31 6.31 0 0 0-1.13-3.28l-37.97-61.14a6.27 6.27 0 0 0-4.16-2.42c-1.66-.06-3.48.5-4.4 1.77l-2.43 2.8-16.54-22.04a8.15 8.15 0 0 0-6.31-3.23c-2.28 0-4.69.8-6.38 2.73Z"/>
  <path filter="url(#blur1)" fill="#9DE83F" d="m136.04 201.69 11.45-30.44c.72-1.99.88-4.54-.02-6.32a8.99 8.99 0 0 0-4.19-4.93l-50.8-28a6.31 6.31 0 0 0-5.64-.38 6 6 0 0 0-3.99 4.07l-3.36 8.19-62.91-20.67c-2.41-.8-5.19-.6-7.51.48a9.81 9.81 0 0 0-5.05 5.4 8.56 8.56 0 0 0 .23 7.33 8.16 8.16 0 0 0 2.83 3.36l72.52 55.29a8.03 8.03 0 0 0 5.99 1.05c1.97-.65 3.84-2.08 4.33-3.96l1.57-4.31 29.48 18.7c2.5 1.57 5.96 2.16 8.86 1.08a10.13 10.13 0 0 0 6.21-5.94Z"/>
</svg>