<svg xmlns="http://www.w3.org/2000/svg" fill="none" viewBox="0 0 1920 554">
  <defs>
    <filter id="blur1" x="-0.1" y="-0.1">
      <feGaussianBlur in="SourceGraphic" stdDeviation="05" />
    </filter>
  </defs>
  <path filter="url(#blur1)" fill="#9DE83F" d="m1812.89 421-23.38 25.82c-1.5 1.7-2.66 4.16-2.46 6.24a9.06 9.06 0 0 0 2.26 6.36l39.81 45.87a6.66 6.66 0 0 0 5.49 2.41c2.23.07 4.36-.9 5.59-2.57l6.57-6.84 54.8 43.02a11.1 11.1 0 0 0 7.7 2.23c2.75-.23 5.4-1.5 7.16-3.49a9 9 0 0 0 2.64-7.3 8.17 8.17 0 0 0-1.51-4.32l-50.83-80.57a8.42 8.42 0 0 0-5.57-3.2c-2.23-.06-4.66.67-5.89 2.34l-3.26 3.69-22.14-29.04a10.96 10.96 0 0 0-8.44-4.26c-3.05 0-6.28 1.06-8.54 3.6Z"/>
  <path filter="url(#blur1)" fill="#FE73AA" d="m1397.52 8.2-17.48 19.33c-1.13 1.27-2 3.1-1.85 4.66a6.84 6.84 0 0 0 1.69 4.76l29.79 34.32a4.99 4.99 0 0 0 4.11 1.8 4.99 4.99 0 0 0 4.18-1.92l4.91-5.12 41 32.19a8.3 8.3 0 0 0 11.12-.95 6.75 6.75 0 0 0 1.98-5.46 6.18 6.18 0 0 0-1.14-3.23L1437.8 28.3a6.29 6.29 0 0 0-4.16-2.4c-1.67-.05-3.49.5-4.41 1.75l-2.44 2.76-16.56-21.72a8.21 8.21 0 0 0-6.32-3.2c-2.28 0-4.7.8-6.39 2.7Z"/>
  <path filter="url(#blur1)" fill="#9DE83F" d="m136.25 198.84 11.47-30c.72-1.97.88-4.49-.02-6.24a8.9 8.9 0 0 0-4.2-4.86l-50.87-27.6a6.4 6.4 0 0 0-5.66-.38 5.95 5.95 0 0 0-4 4.01l-3.36 8.07-63-20.37c-2.42-.8-5.2-.6-7.53.48a9.74 9.74 0 0 0-5.05 5.31 8.32 8.32 0 0 0 .23 7.23 8.08 8.08 0 0 0 2.83 3.31l72.63 54.51a8.15 8.15 0 0 0 6 1.04c1.97-.64 3.84-2.05 4.34-3.9l1.57-4.26 29.52 18.44a10.56 10.56 0 0 0 8.88 1.06c2.68-.96 5.13-2.9 6.22-5.85Z"/>
</svg>